<?xml version="1.0" encoding="UTF-8"?>
<svg width="1500px" height="1264px" viewBox="0 0 1500 1264" xmlns="http://www.w3.org/2000/svg" xmlns:xlink="http://www.w3.org/1999/xlink" version="1.1">
 <!-- Generated by Pixelmator Pro 2.1.3 -->
 <path id="Path" d="M428 0 L1500 0 1500 93 1484 106 1471 131 1344 120 1262 122 1150 146 1084 132 999 105 898 86 781 82 690 64 627 27 579 20 504 27 454 19 Z" fill="#f08080" fill-opacity="1" stroke="#000000" stroke-width="6" stroke-opacity="1" stroke-linejoin="round" stroke-linecap="round"/>
 <path id="Path-1" d="M0 0 L428 0 449 17 503 28 578 21 628 27 690 64 781 82 897 86 1002 107 1080 132 1149 146 1263 123 1349 121 1466 132 1483 109 1500 94 1500 277 1443 286 1353 323 1280 343 1227 339 1029 298 927 260 874 214 787 190 630 193 603 212 545 218 428 266 364 292 288 291 229 302 117 307 44 303 0 294 Z" fill="#f08080" fill-opacity="1" stroke="#000000" stroke-width="6" stroke-opacity="1" stroke-linejoin="round" stroke-linecap="round"/>
 <path id="Path-2" d="M0 295 L46 304 115 307 227 304 285 292 363 293 428 267 415 294 412 343 412 376 397 390 358 580 338 562 309 591 266 596 251 614 214 642 169 642 148 655 106 616 42 616 0 620 Z" fill="#f08080" fill-opacity="1" stroke="#000000" stroke-width="6" stroke-opacity="1" stroke-linejoin="round" stroke-linecap="round"/>
 <path id="Path-3" d="M428 267 L546 217 601 213 629 195 785 189 877 216 923 257 1024 296 1226 343 1280 343 1349 328 1446 284 1500 278 1500 301 1480 303 1387 733 1328 730 1281 729 1242 745 1198 749 1156 736 1173 705 1184 655 1174 655 1188 641 1184 599 1160 553 1130 550 1086 535 1117 512 1119 478 1095 461 1102 437 1064 389 1034 382 1014 363 1020 343 997 312 972 299 939 293 925 300 902 300 889 241 859 226 837 226 816 210 798 211 785 224 759 225 742 238 718 236 693 211 669 211 614 248 627 289 611 293 594 276 565 267 545 246 528 246 485 291 552 461 514 440 492 400 462 410 462 432 467 452 538 484 556 484 579 497 612 482 639 505 681 508 703 536 713 538 732 564 768 555 784 549 798 580 816 581 832 596 872 572 897 573 910 595 878 615 875 632 887 655 920 679 878 706 860 695 805 707 782 706 732 724 715 733 704 741 687 737 686 728 642 738 628 741 556 739 517 748 464 736 428 738 403 733 390 722 283 747 265 737 254 742 247 741 229 721 171 723 115 749 44 746 35 751 0 745 0 621 105 614 149 655 170 640 214 643 250 612 266 593 312 589 338 563 356 580 396 390 416 375 413 295 Z" fill="#f08080" fill-opacity="1" stroke="#000000" stroke-width="6" stroke-opacity="1" stroke-linejoin="round" stroke-linecap="round"/>
 <path id="Path-4" d="M1500 306 L1500 596 1490 584 1473 586 1458 594 1441 592 1441 583 1423 576 1481 303 Z" fill="#f08080" fill-opacity="1" stroke="#000000" stroke-width="6" stroke-opacity="1" stroke-linejoin="round" stroke-linecap="round"/>
 <path id="Path-5" d="M1500 596 L1488 587 1472 588 1462 596 1439 596 1439 584 1423 579 1387 733 1500 736 Z" fill="#f08080" fill-opacity="1" stroke="#000000" stroke-width="6" stroke-opacity="1" stroke-linejoin="round" stroke-linecap="round"/>
 <path id="Path-6" d="M1500 751 L1500 771 1444 765 1345 780 1252 762 1208 760 1166 776 1138 774 1118 783 1099 761 1156 736 1198 751 1241 751 1282 736 1500 736 Z" fill="#8080f0" fill-opacity="1" stroke="#000000" stroke-width="6" stroke-opacity="1" stroke-linejoin="round" stroke-linecap="round"/>
 <path id="Path-7" d="M1030 894 L1065 873 1099 874 1166 848 1279 856 1462 851 1500 833 1500 1084 1444 1049 1204 980 1173 984 Z" fill="#8080f0" fill-opacity="1" stroke="#000000" stroke-width="6" stroke-opacity="1" stroke-linejoin="round" stroke-linecap="round"/>
 <path id="Path-8" d="M0 1156 L51 1171 92 1171 136 1206 171 1195 231 1203 231 1208 303 1222 339 1241 400 1253 417 1214 428 1204 451 1164 496 1149 561 1151 635 1168 725 1216 826 1239 866 1241 895 1253 953 1211 1030 1221 1151 1223 1178 1205 1220 1207 1223 1199 1300 1190 1343 1162 1387 1154 1444 1131 1500 1122 1500 1264 0 1264 Z" fill="#8080f0" fill-opacity="1" stroke="#000000" stroke-width="6" stroke-opacity="1" stroke-linejoin="round" stroke-linecap="round"/>
 <path id="Path-9" d="M1500 772 L1500 831 1462 852 1276 854 1167 849 1099 873 1065 872 1027 894 900 827 893 816 877 816 812 783 691 793 667 806 579 799 555 808 471 813 603 783 715 770 834 770 901 795 964 783 1028 796 1069 783 1099 783 1116 783 1134 783 1167 775 1209 759 1256 759 1348 783 1444 766 Z" fill="#8080f0" fill-opacity="1" stroke="#000000" stroke-width="6" stroke-opacity="1" stroke-linejoin="round" stroke-linecap="round"/>
 <path id="Path-10" d="M512 802 L555 783 606 759 631 736 686 728 687 736 704 742 716 736 780 707 806 707 861 694 879 706 923 679 885 657 874 632 878 614 911 596 897 579 871 571 833 596 817 579 797 579 784 546 734 564 711 538 702 538 682 508 639 505 612 480 579 497 555 484 538 485 467 449 462 432 463 410 491 400 514 439 552 461 486 292 527 247 546 245 563 267 591 274 611 293 627 290 616 247 669 212 690 211 718 237 744 238 760 224 786 225 798 210 815 209 836 227 862 227 889 243 901 303 925 303 940 293 971 298 997 312 1021 343 1015 360 1034 381 1066 391 1105 436 1095 461 1119 480 1116 512 1087 533 1134 552 1161 553 1184 600 1189 639 1174 655 1184 655 1175 700 1158 736 1099 759 1118 783 1068 783 1029 796 964 783 901 796 833 770 711 771 661 777 597 783 Z" fill="#80f080" fill-opacity="1" stroke="#000000" stroke-width="6" stroke-opacity="1" stroke-linejoin="round" stroke-linecap="round"/>
 <path id="Path-11" d="M0 751 L35 751 44 746 116 751 170 724 229 721 247 744 264 736 286 751 390 722 403 736 428 736 462 736 519 751 555 736 625 736 607 759 535 783 486 793 454 794 392 776 283 783 214 778 194 783 190 792 178 802 148 783 83 787 66 791 47 783 34 783 0 783 Z" fill="#8080f0" fill-opacity="1" stroke="#000000" stroke-width="6" stroke-opacity="1" stroke-linejoin="round" stroke-linecap="round"/>
 <path id="Path-12" d="M0 783 L49 783 66 792 150 783 177 802 191 792 192 783 214 783 282 783 393 777 453 796 488 793 536 783 606 759 518 802 462 809 417 802 383 813 339 809 313 818 258 816 245 808 214 809 195 814 165 808 150 802 123 809 88 821 36 794 0 794 Z" fill="#8080f0" fill-opacity="1" stroke="#000000" stroke-width="6" stroke-opacity="1" stroke-linejoin="round" stroke-linecap="round"/>
 <path id="Path-13" d="M0 790 L34 790 88 821 151 802 197 821 245 809 258 821 313 821 344 810 379 821 419 802 462 811 438 826 403 826 361 851 333 852 262 911 214 935 201 956 141 984 93 989 57 1004 0 1024 Z" fill="#8080f0" fill-opacity="1" stroke="#000000" stroke-width="6" stroke-opacity="1" stroke-linejoin="round" stroke-linecap="round"/>
 <path id="Path-14" d="M0 1024 L95 992 140 987 205 958 214 937 262 915 330 852 360 853 400 826 441 826 462 811 554 802 577 802 667 802 691 790 812 783 877 821 893 821 901 826 1027 894 1176 982 1202 981 1398 1038 1444 1051 1500 1085 1500 1122 1462 1129 1444 1129 1387 1155 1343 1161 1300 1189 1222 1200 1218 1204 1176 1205 1147 1222 1033 1223 950 1214 898 1253 866 1243 826 1240 721 1212 634 1167 554 1151 496 1150 451 1163 428 1205 413 1215 399 1253 338 1243 295 1222 231 1210 231 1204 205 1203 169 1196 136 1206 90 1173 54 1173 0 1156 Z" fill="#8080f0" fill-opacity="1" stroke="#000000" stroke-width="6" stroke-opacity="1" stroke-linejoin="round" stroke-linecap="round"/>
</svg>
