<?xml version="1.0" encoding="UTF-8"?>
<svg width="1500px" height="1264px" viewBox="0 0 1500 1264" xmlns="http://www.w3.org/2000/svg" xmlns:xlink="http://www.w3.org/1999/xlink" version="1.1">
 <!-- Generated by Pixelmator Pro 2.1.4 -->
 <path id="Path" d="M0 0 L1500 0 1500 736 1265 736 1250 759 1189 759 1159 736 625 736 552 736 519 759 462 736 399 736 390 721 303 759 263 736 247 736 231 721 165 721 116 759 44 736 36 759 0 759 0 0 Z" fill="#f08080" fill-opacity="1" stroke="none"/>
 <path id="Path-1" d="M0 759 L35 759 50 732 117 759 167 722 240 720 302 759 391 724 395 736 462 736 513 759 555 738 1163 737 1189 759 1250 759 1276 733 1500 735 1500 1264 0 1264 0 759 Z" fill="#8080f0" fill-opacity="1" stroke="none"/>
 <path id="Path-10" d="M512 802 L555 783 606 759 631 736 686 728 687 736 704 742 716 736 780 707 806 707 861 694 879 706 923 679 885 657 874 632 878 614 911 596 897 579 871 571 833 596 817 579 797 579 784 546 734 564 711 538 702 538 682 508 639 505 612 480 579 497 555 484 538 485 467 449 462 432 463 410 491 400 514 439 552 461 486 292 527 247 546 245 563 267 591 274 611 293 627 290 616 247 669 212 690 211 718 237 744 238 760 224 786 225 798 210 815 209 836 227 862 227 889 243 901 303 925 303 940 293 971 298 997 312 1021 343 1015 360 1034 381 1066 391 1105 436 1095 461 1119 480 1116 512 1087 533 1134 552 1161 553 1184 600 1189 639 1174 655 1184 655 1175 700 1158 736 1099 759 1118 783 1068 783 1029 796 964 783 901 796 833 770 711 771 661 777 597 783 Z" fill="#80f080" fill-opacity="1" stroke="#000000" stroke-width="6" stroke-opacity="1" stroke-linejoin="round" stroke-linecap="round"/>
</svg>
