<svg width="1080" height="1080" viewBox="0 0 1080 1080" xmlns="http://www.w3.org/2000/svg" xmlns:xlink="http://www.w3.org/1999/xlink">
    <path id="9-dock" fill="#91ccf3" fill-opacity="0.752077" fill-rule="evenodd" stroke="none" d="M 40 20 L 33 337 L 278 340 L 269 303 L 231 287 L 218 252 L 232 214 L 270 198 L 305 214 L 319 247 L 312 281 L 294 296 L 271 305 L 279 340 L 669 338 L 748 213 L 894 271 L 926 332 L 1064 329 L 1065 17 L 40 20 Z"/>
    <path id="8-habitations" fill="#f599f3" fill-opacity="0.752077" fill-rule="evenodd" stroke="none" d="M 651 567 L 806 607 L 912 540 L 912 374 L 938 374 L 895 271 L 749 213 L 653 374 L 540 374 L 489 431 L 491 566 L 651 567 Z"/>
    <path id="7-boat" fill="#8fef92" fill-opacity="0.752077" fill-rule="evenodd" stroke="none" d="M 119 414 L 186 414 L 191 423 L 204 422 L 221 436 L 243 470 L 271 470 L 349 470 L 489 490 L 489 540 L 434 540 L 385 540 L 353 519 L 304 567 L 271 567 L 221 540 L 221 516 L 166 511 L 166 470 L 119 470 L 119 414 Z"/>
    <path id="10-water" fill="#0058cc" fill-opacity="0.752077" fill-rule="evenodd" stroke="none" d="M 33 414 L 33 1063 L 1080 1062 L 1065 410 L 989 410 L 989 470 L 1008 579 L 912 829 L 946 839 L 954 855 L 946 877 L 912 876 L 912 892 L 861 892 L 861 867 L 166 885 L 191 839 L 869 831 L 989 470 L 989 410 L 912 410 L 912 540 L 815 607 L 649 567 L 550 567 L 550 632 L 634 632 L 635 650 L 714 652 L 692 695 L 664 735 L 605 740 L 550 744 L 540 759 L 513 759 L 512 739 L 445 739 L 405 712 L 385 632 L 540 655 L 549 632 L 549 567 L 489 567 L 489 540 L 385 540 L 349 520 L 304 567 L 271 567 L 221 540 L 221 516 L 166 511 L 166 470 L 119 470 L 119 414 L 33 414 Z"/>
    <path id="path1" fill="#0058cc" fill-opacity="0.752077" fill-rule="evenodd" stroke="none" d="M 191 414 L 489 414 L 489 454 L 489 490 L 349 470 L 244 470 L 221 433 L 191 414 Z"/>
    <path id="path2" fill="#8fef92" fill-opacity="0.752077" fill-rule="evenodd" stroke="none" d="M 385 632 L 540 655 L 550 632 L 587 632 L 633 633 L 633 651 L 714 654 L 696 698 L 664 733 L 587 744 L 549 747 L 540 759 L 515 759 L 511 739 L 444 736 L 403 708 L 385 632 Z"/>
    <path id="path3" fill="#f59300" fill-opacity="0.752077" fill-rule="evenodd" stroke="none" d="M 672 340 L 654 374 L 540 374 L 507 409 L 48 409 L 33 340 L 672 340 Z"/>
    <path id="path4" fill="#f59300" fill-opacity="0.752077" fill-rule="evenodd" stroke="none" d="M 922 332 L 938 374 L 912 374 L 912 409 L 1065 409 L 1065 332 L 922 332 Z"/>
    <path id="path5" fill="#f59300" fill-opacity="0.752077" fill-rule="evenodd" stroke="none" d="M 191 838 L 871 833 L 989 470 L 1008 579 L 912 831 L 946 839 L 954 855 L 941 878 L 912 876 L 912 892 L 860 887 L 863 866 L 166 885 L 191 838 Z"/>
    <path id="6-moon" fill="#cd9492" fill-opacity="0.752077" fill-rule="evenodd" stroke="none" d="M 277 305 L 305 286 L 320 253 L 310 219 L 279 202 L 255 201 L 228 218 L 221 253 L 226 280 L 253 300 L 277 305 Z"/>
</svg>
