<svg width="1057" height="880" viewBox="0 0 1057 880" xmlns="http://www.w3.org/2000/svg" xmlns:xlink="http://www.w3.org/1999/xlink">
    <path id="4-valleys" fill="#804000" fill-opacity="0.752077" fill-rule="evenodd" stroke="none" d="M0 522 L0 880 L1057 880 L1057 502 L1022 522 L968 522 L928 500 L868 503 L822 498 L795 522 L729 564 L682 545 L616 564 L549 544 L479 564 L431 564 L389 564 L432 538 L460 522 L416 507 L364 522 L303 504 L273 504 L211 522 L139 496 L113 522 L69 522 L0 522 Z"/>
    <path id="2-sky" fill="#80C0F0" fill-opacity="0.752077" fill-rule="evenodd" stroke="none" d="M0 0 L1057 0 L1057 498 L1018 509 L966 510 L934 500 L977 403 L1009 222 L1025 224 L1018 204 L867 247 L734 220 L642 184 L588 150 L529 135 L459 144 L348 174 L303 203 L307 272 L290 296 L277 401 L273 503 L214 520 L142 496 L104 517 L71 514 L45 522 L0 516 L0 0 Z"/>
    <path id="1-smoke" fill="#808080" fill-opacity="0.752077" fill-rule="evenodd" stroke="none" d="M397 559 L472 562 L553 548 L615 564 L689 548 L727 560 L768 537 L799 522 L809 504 L818 463 L822 396 L756 384 L778 358 L760 329 L758 297 L702 261 L680 222 L629 223 L623 186 L567 163 L508 178 L484 161 L422 210 L386 183 L358 210 L358 225 L379 261 L377 300 L353 289 L345 329 L413 356 L439 343 L445 359 L490 370 L529 405 L555 402 L588 417 L617 403 L648 420 L615 440 L648 481 L613 501 L600 493 L499 522 L463 522 L422 542 L397 559 Z"/>
    <path id="3-rain-" fill="#404080" fill-opacity="0.752077" fill-rule="evenodd" stroke="none" d="M807 499 L860 504 L932 498 L979 396 L1009 225 L1022 225 L1017 202 L866 261 L735 221 L633 181 L587 149 L529 136 L430 151 L351 173 L306 205 L310 261 L288 297 L277 404 L273 502 L313 505 L355 522 L417 506 L466 522 L498 522 L596 490 L614 497 L642 478 L609 440 L634 415 L616 402 L586 416 L550 402 L529 403 L482 369 L447 362 L434 346 L409 350 L367 337 L341 321 L352 285 L375 302 L377 261 L358 230 L359 212 L386 183 L417 209 L432 198 L481 163 L504 180 L529 176 L570 162 L598 174 L624 185 L631 222 L682 220 L711 261 L705 261 L755 294 L761 329 L778 357 L754 381 L819 400 L821 462 L807 499 Z"/>
</svg>
