<svg width="1080" height="1080" viewBox="0 0 1080 1080" xmlns="http://www.w3.org/2000/svg" xmlns:xlink="http://www.w3.org/1999/xlink">
    <path id="5sky" fill="#80c0f0" fill-opacity="0.752077" fill-rule="evenodd" stroke="none" d="M40 20 L33 337 L278 340 L269 303 L231 287 L218 252 L232 214 L270 198 L305 214 L319 247 L312 281 L294 296 L271 305 L279 340 L669 338 L748 213 L894 271 L926 332 L1064 329 L1065 17 L40 20 Z"/>
    <path id="8-habitations" fill="#f080f0" fill-opacity="0.752077" fill-rule="evenodd" stroke="none" d="M651 567 L806 607 L912 540 L912 374 L938 374 L895 271 L749 213 L653 374 L540 374 L489 431 L491 566 L651 567 Z"/>
    <path id="7-boat" fill="#80f080" fill-opacity="0.752077" fill-rule="evenodd" stroke="none" d="M119 414 L186 414 L191 423 L204 422 L221 436 L243 470 L271 470 L349 470 L489 490 L489 540 L434 540 L385 540 L353 519 L304 567 L271 567 L221 540 L221 516 L166 511 L166 470 L119 470 L119 414 Z"/>
    <path id="10-water" fill="#0040c0" fill-opacity="0.752077" fill-rule="evenodd" stroke="none" d="M33 414 L33 1063 L1080 1062 L1065 410 L989 410 L989 470 L1008 579 L912 829 L946 839 L954 855 L946 877 L912 876 L912 892 L861 892 L861 867 L166 885 L191 839 L869 831 L989 470 L989 410 L912 410 L912 540 L815 607 L649 567 L550 567 L550 632 L634 632 L635 650 L714 652 L692 695 L664 735 L605 740 L550 744 L540 759 L513 759 L512 739 L445 739 L405 712 L385 632 L540 655 L549 632 L549 567 L489 567 L489 540 L385 540 L349 520 L304 567 L271 567 L221 540 L221 516 L166 511 L166 470 L119 470 L119 414 L33 414 Z"/>
    <path id="path1" fill="#0040c0" fill-opacity="0.752077" fill-rule="evenodd" stroke="none" d="M191 414 L489 414 L489 454 L489 490 L349 470 L244 470 L221 433 L191 414 Z"/>
    <path id="path2" fill="#80f080" fill-opacity="0.752077" fill-rule="evenodd" stroke="none" d="M385 632 L540 655 L550 632 L587 632 L633 633 L633 651 L714 654 L696 698 L664 733 L587 744 L549 747 L540 759 L515 759 L511 739 L444 736 L403 708 L385 632 Z"/>
    <path id="9-dock" fill="#f08000" fill-opacity="0.752077" fill-rule="evenodd" stroke="none" d="M672 340 L654 374 L540 374 L507 409 L48 409 L33 340 L672 340 Z"/>
    <path id="path3" fill="#f08000" fill-opacity="0.752077" fill-rule="evenodd" stroke="none" d="M922 332 L938 374 L912 374 L912 409 L1065 409 L1065 332 L922 332 Z"/>
    <path id="path4" fill="#f08000" fill-opacity="0.752077" fill-rule="evenodd" stroke="none" d="M191 838 L871 833 L989 470 L1008 579 L912 831 L946 839 L954 855 L941 878 L912 876 L912 892 L860 887 L863 866 L166 885 L191 838 Z"/>
    <path id="6-moon" fill="#c08080" fill-opacity="0.752077" fill-rule="evenodd" stroke="none" d="M277 305 L305 286 L320 253 L310 219 L279 202 L255 201 L228 218 L221 253 L226 280 L253 300 L277 305 Z"/>
</svg>
