<svg width="1057" height="880" viewBox="0 0 1057 880" xmlns="http://www.w3.org/2000/svg" xmlns:xlink="http://www.w3.org/1999/xlink">
    <path id="4-valleys" fill="#945200" fill-opacity="0.752077" fill-rule="evenodd" stroke="none" d="M 0 522 L 0 880 L 1057 880 L 1057 502 L 1022 522 L 968 522 L 928 500 L 868 503 L 822 498 L 795 522 L 729 564 L 682 545 L 616 564 L 549 544 L 479 564 L 431 564 L 389 564 L 432 538 L 460 522 L 416 507 L 364 522 L 303 504 L 273 504 L 211 522 L 139 496 L 113 522 L 69 522 L 0 522 Z"/>
    <path id="2-sky" fill="#cbcbcb" fill-opacity="0.752077" fill-rule="evenodd" stroke="none" d="M 0 0 L 1057 0 L 1057 498 L 1018 509 L 966 510 L 934 500 L 977 403 L 1009 222 L 1025 224 L 1018 204 L 867 247 L 734 220 L 642 184 L 588 150 L 529 135 L 459 144 L 348 174 L 303 203 L 307 272 L 290 296 L 277 401 L 273 503 L 214 520 L 142 496 L 104 517 L 71 514 L 45 522 L 0 516 L 0 0 Z"/>
    <path id="1-smoke" fill="#515593" fill-opacity="0.752077" fill-rule="evenodd" stroke="none" d="M 397 559 L 472 562 L 553 548 L 615 564 L 689 548 L 727 560 L 768 537 L 799 522 L 809 504 L 818 463 L 822 396 L 756 384 L 778 358 L 760 329 L 758 297 L 702 261 L 680 222 L 629 223 L 623 186 L 567 163 L 508 178 L 484 161 L 422 210 L 386 183 L 358 210 L 358 225 L 379 261 L 377 300 L 353 289 L 345 329 L 413 356 L 439 343 L 445 359 L 490 370 L 529 405 L 555 402 L 588 417 L 617 403 L 648 420 L 615 440 L 648 481 L 613 501 L 600 493 L 499 522 L 463 522 L 422 542 L 397 559 Z"/>
    <path id="3-rain-" fill="#d1d492" fill-opacity="0.752077" fill-rule="evenodd" stroke="none" d="M 807 499 L 860 504 L 932 498 L 979 396 L 1009 225 L 1022 225 L 1017 202 L 866 261 L 735 221 L 633 181 L 587 149 L 529 136 L 430 151 L 351 173 L 306 205 L 310 261 L 288 297 L 277 404 L 273 502 L 313 505 L 355 522 L 417 506 L 466 522 L 498 522 L 596 490 L 614 497 L 642 478 L 609 440 L 634 415 L 616 402 L 586 416 L 550 402 L 529 403 L 482 369 L 447 362 L 434 346 L 409 350 L 367 337 L 341 321 L 352 285 L 375 302 L 377 261 L 358 230 L 359 212 L 386 183 L 417 209 L 432 198 L 481 163 L 504 180 L 529 176 L 570 162 L 598 174 L 624 185 L 631 222 L 682 220 L 711 261 L 705 261 L 755 294 L 761 329 L 778 357 L 754 381 L 819 400 L 821 462 L 807 499 Z"/>
</svg>
